<svg width="16" height="16" viewBox="0 0 16 16" fill="none" xmlns="http://www.w3.org/2000/svg">
<g clip-path="url(#clip0_1064_958)">
<path d="M7.27262 0.0335657C6.25699 0.130441 5.35699 0.389816 4.44137 0.846066C3.62887 1.24919 3.03512 1.67732 2.36324 2.33669C1.72262 2.97107 1.26012 3.61169 0.847617 4.43982C-0.130508 6.40232 -0.261758 8.62731 0.472617 10.7023C0.747617 11.4711 1.29449 12.4398 1.79449 13.0461C2.54762 13.9523 3.41324 14.6398 4.44137 15.1523C5.66012 15.7586 6.95699 16.0429 8.28199 15.9898C9.47262 15.9398 10.507 15.6773 11.5601 15.1523C12.8289 14.5242 13.882 13.5929 14.6726 12.4054C14.9445 11.9961 15.3507 11.1961 15.5164 10.7367C16.0632 9.24294 16.1414 7.52419 15.7351 5.97732C15.582 5.39607 15.4476 5.03982 15.157 4.45232C14.7507 3.63044 14.3226 3.03357 13.6632 2.36169C12.0039 0.680441 9.61012 -0.191434 7.27262 0.0335657ZM5.24137 3.84294C5.34137 3.88044 6.85699 5.37732 6.92574 5.50544C7.03199 5.70857 7.01012 5.74607 6.44137 6.32419C6.15387 6.61794 5.89137 6.90544 5.86324 6.95857C5.74449 7.19294 5.76949 7.47107 5.92887 7.71169C6.45074 8.48669 7.82574 9.81481 8.46012 10.1554C8.60387 10.2336 8.88824 10.2398 9.05699 10.1711C9.12887 10.1398 9.37262 9.92419 9.68824 9.60856C10.2101 9.08981 10.2914 9.03357 10.4632 9.07732C10.5695 9.10232 12.1039 10.6211 12.1757 10.7742C12.2695 10.9742 12.1632 11.1429 11.6664 11.5773C11.1351 12.0429 10.5445 12.2398 9.93824 12.1554C9.12262 12.0429 7.78199 11.3804 6.81324 10.6054C6.45074 10.3148 5.56324 9.42419 5.27574 9.06169C4.62574 8.24607 4.06324 7.20544 3.85699 6.45232C3.72574 5.96794 3.78199 5.46169 4.02262 4.96794C4.15387 4.70232 4.20699 4.63044 4.57262 4.25857C4.79449 4.03044 5.00699 3.83982 5.04449 3.83357C5.07887 3.82732 5.11949 3.81794 5.13199 3.81482C5.14449 3.81482 5.19137 3.82732 5.24137 3.84294Z" fill="white"/>
</g>
<defs>
<clipPath id="clip0_1064_958">
<rect width="16" height="16" fill="white"/>
</clipPath>
</defs>
</svg>
